<svg id="Layer_25" data-name="Layer 25" xmlns="http://www.w3.org/2000/svg" viewBox="0 0 599.6 599.14"><defs><style>.cls-1{fill:#d52d27;stroke:#5e5e5e;stroke-miterlimit:10;fill-rule:evenodd;}</style></defs><path class="cls-1" d="M298.86,598.34c-161.35,2.23-296.59-131-299-294.54C-2.7,137.62,129.42,2.23,296,.25c164.72-2,300,129.58,302.32,293.89C600.68,462.67,469.43,596,298.86,598.34Zm16.39-248.86c.37,1.08.75,2.16,1.12,3.25-22,22-44.22,43.77-66.05,65.94-15.15,15.38-15,27.75-.1,43.08,8.69,8.93,17.57,17.7,26.43,26.47,16.74,16.57,29.15,16.66,46-.09,25.6-25.53,50.95-51.31,76.53-76.87,30.27-30.26,60.78-60.29,91-90.65,13.59-13.67,14.62-27.71,1.89-40.55q-86-86.79-172.77-172.82c-12.89-12.79-26.45-12.24-39.65.3-9.93,9.44-19.54,19.25-29.13,29.05-14.61,14.95-14.75,28.33-.15,43.31,13.92,14.29,28.19,28.23,42.28,42.36,8,8,16,16.14,26.58,26.82H137.39c-3.74,0-7.5-.15-11.22.17-17.24,1.46-26.35,11-26.7,28.2-.25,12.05-.06,24.11-.06,36.16,0,27.44,8.21,35.81,35.49,35.84q82.92.1,165.84,0Z" transform="translate(0.73 0.27)"/></svg>