<svg id="Layer_2" data-name="Layer 2" xmlns="http://www.w3.org/2000/svg" viewBox="0 0 35.95 34.24"><defs><style>.cls-1{fill:#ca171d;}.cls-2{fill:#fff;}</style></defs><title>Beauty&amp;amp;Spas</title><path class="cls-1" d="M36,13.06S30.14,7.9,24.87,9.41C24.68,3.94,18,0,18,0s-6.71,3.94-6.9,9.41C5.81,7.9,0,13.06,0,13.06s1.67,7.59,6.82,9.47c-3.06,4.54,0,11.66,0,11.66S14.6,35,18,30.63c3.37,4.32,11.11,3.56,11.11,3.56s3.11-7.12,0-11.66C34.28,20.65,36,13.06,36,13.06Z"/><circle class="cls-2" cx="17.98" cy="18.9" r="3.08"/><circle class="cls-2" cx="17.98" cy="12.85" r="1.43"/><circle class="cls-2" cx="12.22" cy="17.03" r="1.43"/><circle class="cls-2" cx="14.42" cy="23.8" r="1.43"/><circle class="cls-2" cx="21.53" cy="23.8" r="1.43"/><circle class="cls-2" cx="23.73" cy="17.03" r="1.43"/></svg>