<svg id="Layer_2" data-name="Layer 2" xmlns="http://www.w3.org/2000/svg" viewBox="0 0 40.52 40.52"><defs><style>.cls-1{fill:#ca171d;}.cls-2{fill:#fff;}</style></defs><title>Extra20percent</title><path class="cls-1" d="M23.34,23.25A1.37,1.37,0,0,0,22,24.62a1.37,1.37,0,0,0,2.74,0A1.38,1.38,0,0,0,23.34,23.25Z"/><path class="cls-1" d="M16.28,18.4a1.37,1.37,0,1,0-1.37,1.36A1.36,1.36,0,0,0,16.28,18.4Z"/><path class="cls-1" d="M30.8,0,19.44,1.64,0,21.08,19.44,40.52,38.88,21.08,40.52,9.72ZM11.58,18.4a3.34,3.34,0,1,1,3.33,3.32A3.31,3.31,0,0,1,11.58,18.4Zm4.68,9.93-1.56-.78L22,14.73l1.63.79Zm7.08-.39a3.32,3.32,0,1,1,3.34-3.32A3.32,3.32,0,0,1,23.34,27.94ZM32.2,14.41a4.31,4.31,0,1,1,0-6.09A4.31,4.31,0,0,1,32.2,14.41Z"/><path class="cls-2" d="M32.2,8.32a4.31,4.31,0,1,0,0,6.09A4.31,4.31,0,0,0,32.2,8.32Z"/><path class="cls-2" d="M23.34,21.3a3.32,3.32,0,1,0,3.34,3.32A3.32,3.32,0,0,0,23.34,21.3Zm0,4.67A1.36,1.36,0,0,1,22,24.62,1.37,1.37,0,1,1,23.34,26Z"/><path class="cls-2" d="M18.25,18.4a3.34,3.34,0,1,0-3.34,3.32A3.31,3.31,0,0,0,18.25,18.4Zm-4.71,0a1.37,1.37,0,0,1,2.74,0,1.37,1.37,0,0,1-2.74,0Z"/><polygon class="cls-2" points="23.59 15.52 21.95 14.73 14.7 27.55 16.27 28.33 23.59 15.52"/></svg>