<?xml version="1.0" encoding="utf-8"?>
<!-- Generator: Adobe Illustrator 24.1.0, SVG Export Plug-In . SVG Version: 6.00 Build 0)  -->
<svg version="1.1" id="Layer_1" xmlns="http://www.w3.org/2000/svg" xmlns:xlink="http://www.w3.org/1999/xlink" x="0px" y="0px"
	 viewBox="0 0 64 64" enable-background="new 0 0 64 64" xml:space="preserve">
<g>
	<path fill="#FFFFFF" d="M59.2,17c-0.7,0-1.3,0-2,0c-13.2,0-26.4,0-39.7,0c0.3,2.3,1.4,2.9,3.5,2.9c8.8-0.1,17.7,0,26.5,0
		c4,0,8,0,12.2,0c-1.5,6.8-4.6,11.9-11.5,13.7c-2.3,0.6-4.5,1-6.9,1c-6.1,0-12.2,0-18.4,0c0.3,2.2,1.2,3.1,3.5,3
		c4.7-0.2,9.3,0,14-0.1c12.2-0.2,18.9-5.1,22-16.2C63.5,17,63.5,17,59.2,17z"/>
	<path fill="#FFFFFF" d="M55.8,44.1c-9.9,0-19.7-0.1-29.6,0.1c-2.2,0-3.1-0.7-3.8-2.7C18.7,30.3,14.8,19.1,11,8
		c-0.3-0.9-0.5-1.8-1.8-1.8c-2.2,0.1-4.4,0-6.6,0C1.6,6.2,1,6.7,1,7.7c0,0.9,0.6,1.3,1.5,1.3c1.2,0,2.4,0.1,3.5,0
		C7.7,8.7,8.4,9.5,8.9,11c3.8,11.2,7.7,22.3,11.4,33.4c0.7,1.9,1.6,2.6,3.6,2.5c5.2-0.2,10.4-0.1,15.6-0.1c5.4,0,10.8,0,16.2,0
		c0.9,0,2,0.4,2-1.4C57.7,43.8,56.7,44.1,55.8,44.1z"/>
	<path fill="#FFFFFF" d="M51.6,48.2c-2.6,0-4.7,2.1-4.8,4.7c0,2.7,2.2,5,4.8,4.9c2.6,0,4.7-2.2,4.6-4.9
		C56.3,50.3,54.2,48.2,51.6,48.2z M51.7,54.9c-1.1,0-2-0.6-2-1.8c0-1.2,0.7-1.9,1.8-2c1.2-0.1,1.8,0.7,2.1,1.8
		C53.4,54.1,52.8,54.9,51.7,54.9z"/>
	<path fill="#FFFFFF" d="M26,48.2c-2.6,0-4.7,2.2-4.7,4.8c0,2.7,2.3,5,4.9,4.9c2.5-0.1,4.7-2.3,4.6-4.9C30.7,50.3,28.6,48.1,26,48.2
		z M26,54.9c-1.2,0-1.9-0.8-1.9-1.9c0-1.2,0.7-1.9,1.9-1.9c1.2,0.1,1.9,0.8,1.9,1.9C27.9,54.1,27.2,54.9,26,54.9z"/>
</g>
</svg>
