<svg id="Layer_1" data-name="Layer 1" xmlns="http://www.w3.org/2000/svg" viewBox="0 0 292.2 66.71"><defs><style>.cls-1{fill:#fff}</style></defs><path class="cls-1" d="M0 32.65A14.35 14.35 0 0 0 14.35 47V26.6L0 2.28ZM61.07 0 39.32 30.92 17.57 0H0l30.53 43.41H48.1l16.19-23v25.27a14.34 14.34 0 0 0 14.34-14.34V0H61.07ZM135.75.09h-35.6a14.34 14.34 0 0 0-14.34 14.35h49.94v17h-35.6V19.35l-14.34-3.59v15.67a14.34 14.34 0 0 0 14.34 14.34h35.6a14.35 14.35 0 0 0 14.35-14.34v-17A14.35 14.35 0 0 0 135.75.09ZM207.21.09h-35.6a14.34 14.34 0 0 0-14.34 14.35h49.94v17h-35.6V19.35l-14.34-3.59v15.67a14.34 14.34 0 0 0 14.34 14.34h35.6a14.34 14.34 0 0 0 14.35-14.34v-17A14.34 14.34 0 0 0 207.21.09ZM292.2 14.44A14.34 14.34 0 0 0 277.86.09h-49.13v14.35h49.13v4.91h-34.78l-14.35-3.59V45.77h49.13a14.34 14.34 0 0 0 14.34-14.39v-4.86l-6.2-3.59 6.21-3.58Zm-14.34 17h-34.78v-4.92h34.78Z"/><circle class="cls-1" cx="39.32" cy="7.17" r="7.17"/><path class="cls-1" d="m161.56 53.16 3 9.43 3-9.43h4.3v13.55h-3.27v-3.16l.31-6.48-3.27 9.64h-2.16l-3.29-9.65.32 6.49v3.16h-3.27V53.16ZM181.84 64.18h-4.47l-.79 2.53h-3.49l5-13.55h3.08l5 13.55h-3.51Zm-3.69-2.52h2.91L179.6 57ZM192.17 61.92h-1.77v4.79h-3.27V53.16h5.33a6 6 0 0 1 3.77 1.07 3.61 3.61 0 0 1 1.36 3 4.45 4.45 0 0 1-.59 2.37 4 4 0 0 1-1.79 1.5l2.83 5.47v.14h-3.5Zm-1.77-2.51h2.06a1.68 1.68 0 0 0 1.87-1.86 1.93 1.93 0 0 0-.47-1.38 1.85 1.85 0 0 0-1.4-.5h-2.06ZM204.17 61.67l-1.34 1.47v3.57h-3.26V53.16h3.26v6l1.17-1.75 2.92-4.25h4l-4.58 6 4.58 7.55h-3.87ZM220.17 61H215v3.2h6.07v2.51h-9.34V53.16h9.35v2.52H215v2.86h5.14ZM233.25 55.68h-4.06v11h-3.27v-11h-4v-2.52h11.33ZM237.9 62.12v4.59h-3.27V53.16H240a6.35 6.35 0 0 1 2.75.57 4.39 4.39 0 0 1 1.85 1.63 4.46 4.46 0 0 1 .66 2.4 3.94 3.94 0 0 1-1.42 3.17 5.92 5.92 0 0 1-3.9 1.19Zm0-2.53h2.1a2.07 2.07 0 0 0 1.45-.47 1.77 1.77 0 0 0 .49-1.34 2.18 2.18 0 0 0-.51-1.52 1.81 1.81 0 0 0-1.39-.58h-2.14ZM250.31 64.2H256v2.51h-9V53.16h3.27ZM265.25 64.18h-4.48l-.77 2.53h-3.5l5-13.55h3.07l5 13.55H266Zm-3.7-2.52h2.91L263 57ZM281.3 62.13a4.93 4.93 0 0 1-.76 2.49 4.54 4.54 0 0 1-2 1.68 6.62 6.62 0 0 1-2.88.6 5.32 5.32 0 0 1-4.21-1.74 7.21 7.21 0 0 1-1.45-4.92v-.67a8.22 8.22 0 0 1 .69-3.48 5.21 5.21 0 0 1 2-2.31 5.56 5.56 0 0 1 3-.81 5.87 5.87 0 0 1 4 1.29 5.15 5.15 0 0 1 1.7 3.58h-3.26a2.4 2.4 0 0 0-.62-1.77 2.57 2.57 0 0 0-1.79-.54 2 2 0 0 0-1.79.91 6 6 0 0 0-.59 2.91v1a6.52 6.52 0 0 0 .54 3.1 2 2 0 0 0 1.88.93 2.53 2.53 0 0 0 1.72-.53 2.22 2.22 0 0 0 .63-1.68ZM291.25 61h-5.14v3.2h6.07v2.51h-9.33V53.16h9.35v2.52h-6.09v2.86h5.14Z"/></svg>