<svg id="Layer_2" data-name="Layer 2" xmlns="http://www.w3.org/2000/svg" viewBox="0 0 48.84 48.84"><defs><style>.cls-1{fill:#ca171d;}.cls-2{fill:#fff;}</style></defs><title>ThingstoDo</title><path class="cls-1" d="M41.58,16.33a5.39,5.39,0,0,1-1.2-5.83l-2-2a5.42,5.42,0,0,1-7-7L29.88,0,0,29.88,1.42,31.3a5.42,5.42,0,0,1,7,7l2,2a5.41,5.41,0,0,1,7,7L19,48.84,48.84,19l-1.42-1.42A5.41,5.41,0,0,1,41.58,16.33ZM20.89,42.26,6.58,28,28,6.58,42.26,20.89Z"/><path class="cls-1" d="M8,28l12.9,12.89,20-20L28,8Zm21.4-1-4-.63-1.85,3.61-.63-4-4-.64,3.62-1.84-.64-4,2.87,2.87,3.62-1.84-1.85,3.61Z"/><path class="cls-2" d="M6.58,28,20.89,42.26,42.26,20.89,28,6.58ZM20.89,40.84,8,28,28,8l12.89,12.9Z"/><polygon class="cls-2" points="24.75 22.31 21.88 19.44 22.52 23.45 18.9 25.29 22.91 25.93 23.55 29.93 25.39 26.32 29.39 26.95 26.52 24.09 28.37 20.47 24.75 22.31"/></svg>