<?xml version="1.0" encoding="utf-8"?>
<!-- Svg Vector Icons : http://www.onlinewebfonts.com/icon -->
<!DOCTYPE svg PUBLIC "-//W3C//DTD SVG 1.1//EN" "http://www.w3.org/Graphics/SVG/1.1/DTD/svg11.dtd">
<svg version="1.1" xmlns="http://www.w3.org/2000/svg" xmlns:xlink="http://www.w3.org/1999/xlink" x="0px" y="0px" viewBox="0 0 1000 1000" enable-background="new 0 0 1000 1000" xml:space="preserve">
<metadata> Svg Vector Icons : http://www.onlinewebfonts.com/icon </metadata>
<g><path d="M586.7,294.7l-33.6,75.6c0,0-30,74.2,67.6,58.7L895,364.2c0,0,62.4-16.9,34.7-71.2L780.4,27.4c0,0-46.3-44.1-77.4,8.3l-33.1,75.9c-0.1,0-505.6-204.5-625.8,329.7C44,441.3,178,134.6,586.7,294.7z"/><path d="M417.1,701.4l31.7-76.3c0,0,28.1-75-69-57l-272.6,71.7c0,0-61.9,18.4-33,72l156.1,262c0,0,47.2,42.8,77.1-10.4l31.2-76.6c0-0.1,510.6,191.8,617.3-345.3C956,541.5,829.8,851.4,417.1,701.4z"/></g>
</svg>